# AST/ASF file generated using VICON BodyLanguage
# -----------------------------------------------
:version 1.10
:name VICON
:units
  mass 1.0
  length 0.45
  angle deg
:documentation
   .ast/.asf automatically generated from VICON data using
   VICON BodyBuilder and BodyLanguage model FoxedUp or BRILLIANT.MOD
:root
   order TX TY TZ RX RY RZ
   axis XYZ
   position 0 0 0  
   orientation 0 0 0 
:bonedata
  begin
     id 1 
     name lhipjoint
     direction 0.440178 -0.822639 0.359871 
     length 2.53113 
     axis 0 0 0  XYZ
  end
  begin
     id 2 
     name lfemur
     direction 0.34202 -0.939693 0  
     length 7.88132  
     axis 0 0 20  XYZ
    dof rx ry rz
    limits (-160.0 20.0)
           (-70.0 70.0)
           (-60.0 70.0)
  end
  begin
     id 3 
     name ltibia
     direction 0.34202 -0.939693 0   
     length 8.43783   
     axis 0 0 20   XYZ
    dof rx
    limits (-10.0 170.0)
  end
  begin
     id 4 
     name lfoot
     direction 0.0886351 -0.243523 0.965837   
     length 2.63414   
     axis -90 7.62852e-016 20   XYZ
    dof rx rz
    limits (-45.0 90.0)
           (-70.0 20.0)
  end
  begin
     id 5 
     name ltoes
     direction 1.53703e-011 -4.21717e-011 1   
     length 1.31427   
     axis -90 7.62852e-016 20   XYZ
    dof rx
    limits (-90.0 20.0)
  end
  begin
     id 6 
     name rhipjoint
     direction -0.399779 -0.839773 0.367367   
     length 2.47948  
     axis 0 0 0  XYZ 
  end
  begin
     id 7 
     name rfemur
     direction -0.34202 -0.939693 0   
     length 7.74806   
     axis 0 0 -20   XYZ
    dof rx ry rz
    limits (-160.0 20.0)
           (-70.0 70.0)
           (-70.0 60.0)
  end
  begin
     id 8 
     name rtibia
     direction -0.34202 -0.939693 0   
     length 8.74432   
     axis 0 0 -20   XYZ
    dof rx
    limits (-10.0 170.0)
 end
 begin
     id 9 
     name rfoot
     direction -0.108514 -0.298139 0.948334   
     length 2.66102  
     axis -90 -7.62852e-016 -20   XYZ
    dof rx rz
    limits (-45.0 90.0)
           (-20.0 70.0)
  end
  begin
     id 10 
     name rtoes
     direction -1.53392e-011 -4.22077e-011 1   
     length 1.31983   
     axis -90 -7.62852e-016 -20   XYZ
    dof rx
    limits (-90.0 20.0)
  end
  begin
     id 11 
     name lowerback
     direction 0.0113257 0.999866 0.0118602   
     length 2.58694   
     axis 0 0 0   XYZ
    dof rx ry rz
    limits (-20.0 45.0)
           (-30.0 30.0)
           (-30.0 30.0)
  end
  begin
     id 12 
     name upperback
     direction -0.0164747 0.995193 -0.0965375   
     length 2.52368   
     axis 0 0 0   XYZ
    dof rx ry rz
    limits (-20.0 45.0)
           (-30.0 30.0)
           (-30.0 30.0)
  end
  begin
     id 13 
     name thorax
     direction -0.0194301 0.99433 -0.104552   
     length 2.56099   
     axis 0 0 0   XYZ
    dof rx ry rz
    limits (-20.0 45.0)
           (-30.0 30.0)
           (-30.0 30.0)
  end
  begin
     id 14 
     name lowerneck
     direction 0.0148543 0.995587 -0.092657   
     length 1.71582   
     axis 0 0 0   XYZ
    dof rx ry rz
    limits (-20.0 45.0)
           (-30.0 30.0)
           (-30.0 30.0)
  end
  begin
     id 15 
     name upperneck
     direction -0.0135467 0.993656 -0.111639   
     length 1.68937   
     axis 0 0 0   XYZ
    dof rx ry rz
    limits (-20.0 45.0)
           (-30.0 30.0)
           (-30.0 30.0)
  end
  begin
     id 16
     name head
     direction -0.00615349 0.999547 -0.029448  
     length 1.7462  
     axis 0 0 0   XYZ
    dof rx ry rz
    limits (-20.0 45.0)
           (-30.0 30.0)
           (-30.0 30.0)
  end
  begin
     id 17 
     name lclavicle
     direction 0.988267 0.149885 0.0293713  
     length 4.47222  
     axis 0 0 0   XYZ
    dof ry rz
    limits (-20.0 10.0)
           (0.0 20.0)
  end
  begin
     id 18 
     name lhumerus
     direction 1 -4.48986e-011 -1.14833e-027   
     length 5.37148   
     axis 180 -30 -90   XYZ
    dof rx ry rz
    limits (-60.0 90.0)
           (-90.0 90.0)
           (-90.0 90.0)
  end
  begin
     id 19
     name lradius
     direction 0.999998 0.00170963 -0.000987055   
     length 3.94212   
     axis 180 -30 -90   XYZ
    dof rx
    limits (-10.0 170.0)
  end
  begin
     id 20
     name lwrist
     direction 0.999998 7.53149e-005 -0.00194706   
     length 1.97106   
     axis 4.65056e-015 90 90   XYZ
    dof ry
    limits (-180.0 0.0)
 end
  begin
     id 21 
     name lhand
     direction 1 -4.48973e-011 -1.31746e-026   
     length 1.17917   
     axis 8.4065e-015 90 90   XYZ
    dof rx rz
    limits (-90.0 90.0)
           (-45.0 45.0)
  end
  begin
     id 22 
     name lfingers
     direction 1 -4.49107e-011 -2.63492e-026   
     length 0.950679   
     axis 1.6813e-014 90 90   XYZ
    dof rx
    limits (0.0 90.0)
  end
  begin
     id 23
     name lthumb
     direction 0.707107 -6.35048e-011 0.707107   
     length 1.36499   
     axis -90 45 2.85299e-015   XYZ
    dof rx rz
    limits (-45.0 45.0)
           (-45.0 45.0)
  end
  begin
     id 24 
     name rclavicle
     direction -0.996699 0.0642895 -0.0495725   
     length 4.62611  
     axis 0 0 0   XYZ 
    dof ry rz
    limits (-10.0 20.0)
           (-20.0 0.0)
  end
  begin
     id 25 
     name rhumerus
     direction -1 -4.48919e-011 -2.41059e-027  
     length 5.4981   
     axis 180 30 90   XYZ
    dof rx ry rz
    limits (-90.0 60.0)
           (-90.0 90.0)
           (-90.0 90.0)
  end
  begin
     id 26 
     name rradius
     direction -0.999999 0.00118101 -0.000681858   
     length 3.48381   
     axis 180 30 90   XYZ
    dof rx
    limits (-10.0 170.0)
  end
  begin
     id 27 
     name rwrist
     direction -0.999999 0.000321823 -0.00132288   
     length 1.7419   
     axis 4.65056e-015 -90 -90   XYZ
    dof ry
    limits (-180.0 0.0)
  end
  begin
     id 28
     name rhand
     direction -1 -4.49022e-011 -1.31746e-026   
     length 1.34932   
     axis 8.4065e-015 -90 -90   XYZ
    dof rx rz
    limits (-90.0 90.0)
           (-45.0 45.0)
  end
  begin
     id 29
     name rfingers
     direction -1 -4.49178e-011 -2.63492e-026   
     length 1.08785   
     axis 1.6813e-014 -90 -90   XYZ
    dof rx
    limits (0.0 90.0)
  end
  begin
     id 30
     name rthumb
     direction -0.707107 -6.34713e-011 0.707107   
     length 1.56195   
     axis -90 -45 -2.85299e-015   XYZ
    dof rx rz
    limits (-45.0 45.0)
           (-45.0 45.0)
  end
:hierarchy
  begin
    root lhipjoint rhipjoint lowerback
    lhipjoint lfemur
    lfemur ltibia
    ltibia lfoot
    lfoot ltoes
    rhipjoint rfemur
    rfemur rtibia
    rtibia rfoot
    rfoot rtoes
    lowerback upperback
    upperback thorax
    thorax lowerneck lclavicle rclavicle
    lowerneck upperneck
    upperneck head
    lclavicle lhumerus
    lhumerus lradius
    lradius lwrist
    lwrist lhand lthumb
    lhand lfingers
    rclavicle rhumerus
    rhumerus rradius
    rradius rwrist
    rwrist rhand rthumb
    rhand rfingers
  end

#!OML:ASF X:\für Bonn\!DataBase\2005_08_10_Bjorn_Final\c3d\bjorn.ASF
:FULLY-SPECIFIED
:DEGREES
1
root -0.0379381 19.0077 3.33186 -181.639 0.554348 181.023
lowerback -15.8934 2.37584 2.26951
upperback 12.0975 3.69198 0.212179
thorax 23.4094 2.25497 0.427821
lowerneck 1.3719 -6.00314 -1.0962
upperneck 23.4583 -10.9115 -0.351828
head 7.00569 -6.20655 -0.633716
rclavicle 1.39149e-015 -1.3418e-014
rhumerus -1299.53 -110.282 1217.7
rradius 11.9039
rwrist 15.393
rhand -26.789 4.32574
rfingers 7.12502
rthumb -0.216269 -25.6539
lclavicle 1.39149e-015 -1.3418e-014
lhumerus -738.808 83.9213 -656.92
lradius 7.72548
lwrist -53.2781
lhand -23.4681 4.22386
lfingers 7.12502
lthumb 2.99104 34.1826
rfemur -9.71016 -8.21405 13.4934
rtibia 31.6219
rfoot -17.6603 11.3301
rtoes -11.0542
lfemur -9.02087 1.7424 -15.8599
ltibia 32.6544
lfoot -16.4533 -6.96378
ltoes -2.10176
2
root -0.0380995 19.0157 3.38476 -181.753 0.464097 181.001
lowerback -15.3527 2.35413 2.35003
upperback 12.2138 3.71117 0.166763
thorax 23.2103 2.30716 0.315672
lowerneck 0.380282 -6.04455 -1.08522
upperneck 23.2551 -10.7828 -0.318894
head 7.10778 -6.07905 -0.65487
rclavicle -7.65321e-015 2.38542e-015
rhumerus -1291.96 -110.365 1209.38
rradius 11.7315
rwrist 17.0884
rhand -26.8029 4.79396
rfingers 7.12502
rthumb -0.22971 -25.1857
lclavicle -7.65321e-015 2.38542e-015
lhumerus -717.336 81.1693 -634.408
lradius 7.49449
lwrist -53.1445
lhand -23.5892 3.87519
lfingers 7.12502
lthumb 2.87413 33.8356
rfemur -9.6771 -8.20759 13.4788
rtibia 31.4933
rfoot -17.4686 11.2227
rtoes -10.7024
lfemur -9.03738 1.68221 -15.8886
ltibia 32.5496
lfoot -16.2584 -6.96876
ltoes -2.14933
3
root -0.0386512 19.0254 3.43812 -181.866 0.374555 180.981
lowerback -14.8008 2.30461 2.41111
upperback 12.331 3.69439 0.139841
thorax 22.9993 2.33928 0.222813
lowerneck -0.556863 -6.06506 -1.05668
upperneck 23.0434 -10.6181 -0.382514
head 7.19221 -5.94505 -0.70316
rclavicle 4.94477e-014 -5.26779e-015
rhumerus -1284.03 -111.061 1200.85
rradius 11.5628
rwrist 18.7575
rhand -26.7698 5.51502
rfingers 7.12502
rthumb -0.197773 -24.4646
lclavicle 4.94477e-014 -5.26779e-015
lhumerus -706.563 77.8073 -622.729
lradius 7.35615
lwrist -53.114
lhand -23.8147 3.81155
lfingers 7.12502
lthumb 2.65629 33.7748
rfemur -9.63326 -8.19533 13.4707
rtibia 31.3355
rfoot -17.2634 11.0718
rtoes -10.6194
lfemur -9.03944 1.65009 -15.9152
ltibia 32.4146
lfoot -16.0519 -7.00209
ltoes -2.26248
4
root -0.0395611 19.0364 3.49228 -181.9 0.307113 180.94
lowerback -14.3055 2.29374 2.48523
upperback 12.4224 3.72657 0.0839565
thorax 22.7962 2.39403 0.106871
lowerneck -1.47564 -6.08612 -1.05573
upperneck 22.8296 -10.4853 -0.323463
head 7.28299 -5.82065 -0.708738
rclavicle 2.26863e-014 4.27387e-015
rhumerus -1276.67 -112.261 1192.96
rradius 11.5071
rwrist 20.2791
rhand -26.6058 6.41259
rfingers 7.12502
rthumb -0.0393795 -23.5671
lclavicle 2.26863e-014 4.27387e-015
lhumerus -700.583 74.0826 -616.036
lradius 7.26538
lwrist -52.8611
lhand -24.0909 3.86639
lfingers 7.12502
lthumb 2.38957 33.8328
rfemur -9.68699 -8.22826 13.4464
rtibia 31.1604
rfoot -17.0316 10.9686
rtoes -10.5448
lfemur -9.11817 1.56968 -15.9728
ltibia 32.2617
lfoot -15.8157 -6.99119
ltoes -2.09174
5
root -0.0408036 19.0483 3.54811 -181.923 0.215573 180.895
lowerback -13.7977 2.26387 2.52489
upperback 12.517 3.73835 0.0526866
thorax 22.5826 2.43225 0.0315296
lowerneck -2.40324 -6.10489 -1.10746
upperneck 22.6444 -10.3597 -0.250824
head 7.38949 -5.70507 -0.702835
rclavicle -6.35614e-014 8.39865e-015
rhumerus -1269.95 -113.489 1186.02
rradius 11.4674
rwrist 21.6782
rhand -26.1705 7.31087
rfingers 7.12502
rthumb 0.381097 -22.6685
lclavicle -6.35614e-014 8.39865e-015
lhumerus -696.55 70.2024 -611.466
lradius 7.14161
lwrist -52.3108
lhand -24.3549 4.03832
lfingers 7.12502
lthumb 2.13465 34.0074
rfemur -9.74414 -8.23244 13.4226
rtibia 30.981
rfoot -16.7757 10.8116
rtoes -10.3835
lfemur -9.218 1.53013 -16.0354
ltibia 32.0996
lfoot -15.5839 -6.97898
ltoes -2.36456
6
root -0.0416299 19.0614 3.60407 -181.888 0.123115 180.867
lowerback -13.3386 2.24353 2.59597
upperback 12.5865 3.7504 0.00578933
thorax 22.3714 2.47404 -0.0791698
lowerneck -3.23561 -6.10779 -1.15533
upperneck 22.408 -10.2339 -0.0954935
head 7.46765 -5.58568 -0.664334
rclavicle -7.70291e-016 -4.47266e-015
rhumerus -1263.98 -114.969 1179.97
rradius 11.4433
rwrist 22.8968
rhand -25.746 8.08521
rfingers 7.12502
rthumb 0.791111 -21.8931
lclavicle -7.70291e-016 -4.47266e-015
lhumerus -693.594 66.1755 -608.252
lradius 6.84099
lwrist -51.8026
lhand -24.8383 4.28097
lfingers 7.12502
lthumb 1.66772 34.2542
rfemur -9.86255 -8.27845 13.4177
rtibia 30.7907
rfoot -16.5132 10.7199
rtoes -10.2111
lfemur -9.38187 1.51778 -16.0717
ltibia 31.9314
lfoot -15.3239 -7.04459
ltoes -2.18885
7
root -0.0416989 19.0758 3.65974 -181.762 0.0308381 180.839
lowerback -12.989 2.20534 2.63986
upperback 12.6562 3.73524 -0.0287543
thorax 22.2314 2.49534 -0.162704
lowerneck -4.14228 -6.09611 -1.26846
upperneck 22.2453 -10.0962 0.0721177
head 7.58791 -5.46552 -0.615671
rclavicle -2.7805e-014 2.48481e-015
rhumerus -1258.37 -116.618 1174.52
rradius 11.3257
rwrist 24.3515
rhand -25.723 8.77858
rfingers 7.12502
rthumb 0.813314 -21.1996
lclavicle -2.7805e-014 2.48481e-015
lhumerus -691.086 62.0924 -605.713
lradius 6.43842
lwrist -51.2805
lhand -25.472 4.22304
lfingers 7.12502
lthumb 1.05572 34.2002
rfemur -10.083 -8.31641 13.4359
rtibia 30.6046
rfoot -16.2743 10.569
rtoes -10.1551
lfemur -9.63626 1.53995 -16.1114
ltibia 31.7601
lfoot -15.064 -7.09314
ltoes -2.40447
8
root -0.0424392 19.0919 3.71633 -181.593 -0.0631403 180.831
lowerback -12.6713 3.64856 2.39961
upperback 12.7338 3.38152 0.187223
thorax 22.1032 1.37355 -0.269062
lowerneck -5.14908 -6.10214 -1.33053
upperneck 22.1971 -9.99583 0.197192
head 7.76015 -5.36345 -0.59863
rclavicle -4.29623e-014 2.11706e-014
rhumerus -1253.34 -118.593 1169.78
rradius 11.2775
rwrist 25.6431
rhand -25.8032 9.56723
rfingers 7.12502
rthumb 0.735825 -20.4112
lclavicle -4.29623e-014 2.11706e-014
lhumerus -689.034 57.8802 -603.853
lradius 6.01285
lwrist -50.9532
lhand -26.0474 4.54857
lfingers 7.12502
lthumb 0.499966 34.5277
rfemur -10.3505 -8.34016 13.4813
rtibia 30.4088
rfoot -16.0052 10.4313
rtoes -10.0856
lfemur -9.94786 1.61494 -16.1195
ltibia 31.5861
lfoot -14.7731 -7.23393
ltoes -2.12702
9
root -0.0427934 19.1069 3.77526 -181.39 -0.144763 180.781
lowerback -12.3347 3.65454 2.43778
upperback 12.5614 3.37718 0.14196
thorax 22.2003 1.36823 -0.324098
lowerneck -6.17053 -6.10433 -1.37557
upperneck 22.165 -9.87901 0.23719
head 7.93566 -5.26086 -0.610023
rclavicle -1.88845e-015 -4.67144e-015
rhumerus -1248.79 -120.815 1165.74
rradius 11.2164
rwrist 26.9481
rhand -25.7712 10.2358
rfingers 7.12502
rthumb 0.76674 -19.7426
lclavicle -1.88845e-015 -4.67144e-015
lhumerus -687.285 53.7149 -602.488
lradius 5.6391
lwrist -50.7618
lhand -26.6121 5.15326
lfingers 7.12502
lthumb -0.0454746 35.133
rfemur -10.6819 -8.39952 13.4889
rtibia 30.2311
rfoot -15.7349 10.3018
rtoes -10.0825
lfemur -10.3013 1.72066 -16.1803
ltibia 31.4114
lfoot -14.4985 -7.34287
ltoes -2.33993
